# xmcd CD database file
#
# Track frame offsets:
#	150
#	4167
#	20543
#	34516
#	42987
#	70841
#	100789
#	116591
#	146949
#	172504
#	196619
#	241050
#	258488
#	290247
#
# Disc length: 4164 seconds
#
# Revision: 4
# Processed by: cddbd v1.5.1PL0 Copyright (c) Steve Scherf et al.
# Submitted via: CDex 1.51
#
DISCID=b910420e
DTITLE=Speak Up 218 - Speak Up 218
DYEAR=1900
DGENRE=Samba
TTITLE0=Introduction
TTITLE1=Martha Stewart
TTITLE2=It's A Strange World
TTITLE3=Strawberry Fields
TTITLE4=Learning From Heysel
TTITLE5=Fashionable Words
TTITLE6=An Original New Yorker
TTITLE7=We Don't Need No Education
TTITLE8=The Importance Of Oscar
TTITLE9=California's Galapagos
TTITLE10=Short Story
TTITLE11=Letter From Singapore
TTITLE12=Letter From Singapore
TTITLE13=Another Brick In The Wall
EXTD=
EXTT0=
EXTT1=
EXTT2=
EXTT3=
EXTT4=
EXTT5=
EXTT6=
EXTT7=
EXTT8=
EXTT9=
EXTT10=
EXTT11=
EXTT12=
EXTT13=
PLAYORDER=
